<svg xmlns="http://www.w3.org/2000/svg" viewBox="-16071 33.233 24.039 24.033">
  <defs>
    <style>
      .cls-1 {
        fill: #fff;
      }
    </style>
  </defs>
  <g id="Group_63" data-name="Group 63" transform="translate(-16071 33.233)">
    <g id="Group_55" data-name="Group 55">
      <path id="Path_30" data-name="Path 30" class="cls-1" d="M12.02,24.033A12.017,12.017,0,1,1,24.039,12.02,12.027,12.027,0,0,1,12.02,24.033Zm0-22.809a10.8,10.8,0,1,0,10.8,10.8A10.808,10.808,0,0,0,12.02,1.225Z"/>
    </g>
    <g id="Group_60" data-name="Group 60" transform="translate(2.34 2.339)">
      <g id="Group_56" data-name="Group 56" transform="translate(9.147)">
        <rect id="Rectangle_22" data-name="Rectangle 22" class="cls-1" width="1.065" height="4.158"/>
      </g>
      <g id="Group_57" data-name="Group 57" transform="translate(9.147 15.198)">
        <rect id="Rectangle_23" data-name="Rectangle 23" class="cls-1" width="1.065" height="4.158"/>
      </g>
      <g id="Group_58" data-name="Group 58" transform="translate(15.2 9.147)">
        <rect id="Rectangle_24" data-name="Rectangle 24" class="cls-1" width="1.065" height="4.158" transform="translate(4.158) rotate(90)"/>
      </g>
      <g id="Group_59" data-name="Group 59" transform="translate(0 9.149)">
        <rect id="Rectangle_25" data-name="Rectangle 25" class="cls-1" width="1.065" height="4.158" transform="translate(4.158) rotate(90)"/>
      </g>
    </g>
    <g id="Group_61" data-name="Group 61" transform="translate(8.149 4.326)">
      <rect id="Rectangle_26" data-name="Rectangle 26" class="cls-1" width="0.429" height="9.748" transform="matrix(0.905, -0.425, 0.425, 0.905, 0, 0.182)"/>
    </g>
    <g id="Group_62" data-name="Group 62" transform="translate(11.246 8.701)">
      <rect id="Rectangle_27" data-name="Rectangle 27" class="cls-1" width="4.843" height="0.612" transform="translate(0 3.796) rotate(-51.606)"/>
    </g>
  </g>
</svg>
