<?xml version="1.0" encoding="utf-8"?>
<!-- Generator: Adobe Illustrator 21.1.0, SVG Export Plug-In . SVG Version: 6.00 Build 0)  -->
<svg version="1.1" id="Layer_1" xmlns="http://www.w3.org/2000/svg" xmlns:xlink="http://www.w3.org/1999/xlink" x="0px" y="0px"
	 viewBox="0 0 283.7 40.1" style="enable-background:new 0 0 283.7 40.1;" xml:space="preserve">
<style type="text/css">
	.st0{fill:#FFFFFF;}
	.st1{enable-background:new    ;}
	.st2{fill:#42C7F4;}
	.st3{fill:#95ADB7;}
</style>
<g id="Group_47" transform="translate(30 16.947)">
	<g id="Group_46" transform="translate(0 0)">
		<g id="Group_45">
			<g id="XMLID_16_">
				<path class="st0" d="M-22.2-12.8c1.9,3.3,1.2,6.1-0.5,8.7c-2,3-4.6,4.1-7.3,4.9C-29.3-4.6-26.5-9.5-22.2-12.8"/>
			</g>
			<g id="XMLID_15_">
				<path class="st0" d="M-29.8,6.4c-0.1-0.5-0.2-1-0.2-1.5c4-1.3,9.5-4.5,10.9-10.3c0.5-2.9,0-5.8-1.5-8.3c0.9-0.6,1.9-1.1,2.9-1.5
					c2,2.1,2.8,9.1-0.2,13.5c-3,4-7,7.1-11.6,8.9C-29.7,6.9-29.8,6.6-29.8,6.4"/>
			</g>
			<g id="XMLID_14_">
				<path class="st0" d="M-27.1,13.6c-0.8-1.4-1.4-2.8-2-4.2c3.6-2.5,7.2-4.4,11.2-8.3c4.9-4.5,6.6-11.5,4.4-17.7h0.2
					c0.4-0.1,0.8-0.1,1.2-0.1c3.6,6.6,0.4,14.5-5.3,20.1C-22.4,8.3-24.6,10.3-27.1,13.6"/>
			</g>
			<g id="XMLID_13_">
				<path class="st0" d="M-23.8,17.7c2-6.1,7.9-12,9.9-14.3C-7-4.5-7.4-12.5-9.7-16.9c1.3,0,2.6,0.2,3.8,0.4
					c2.6,5.1,2.5,10.2-3.4,17.4C-14.9,7.8-19.4,11-22.7,18.5C-23.1,18.3-23.5,18-23.8,17.7"/>
			</g>
			<g id="XMLID_12_">
				<path class="st0" d="M-21.4,19.6C-17.3,9.7-7.1,3.5-3.3-2.1c2.6-3.9,3-8.8,1.3-13.1c0.4,0.2,1,0.5,1.4,0.8
					C3.3-6.5-1.5-0.2-7.2,5.7c-3.3,3.3-8.8,10.1-10.3,16.1C-18.9,21.2-20.2,20.5-21.4,19.6"/>
			</g>
			<g id="XMLID_11_">
				<path class="st0" d="M-10.9,23.1c-0.7,0-1.4-0.1-2.1-0.2C-12,17-7.2,9.1-2.6,3.5C3-3.2,3.1-8.5,1.4-13.4c1.5,1,2.8,2.2,3.9,3.6
					C6.6-3.9,2.3,2.4-1.8,7C-4.3,9.8-9.6,16.2-10.9,23.1"/>
			</g>
			<g id="XMLID_10_">
				<path class="st0" d="M-3.3,22c-1.1,0.5-2.4,0.8-3.6,0.9c-0.7,0.1-1.4,0.2-2.2,0.2C-8,14.5,0.7,8.4,3.5,5.3
					c2.7-3,4.6-5.2,5.2-8.7C9.1-2.7,9.3-1.9,9.4-1C7.9,4,3.2,7.8,1,10.6C-1.4,13.9-3,17.9-3.3,22"/>
			</g>
			<g id="XMLID_9_">
				<path class="st0" d="M1.2,19.6c-0.1-3.8,1.4-7.6,4-10.3C7.2,7.2,8.7,4.9,10,2.4C10.2,9.3,6.9,15.8,1.2,19.6"/>
			</g>
		</g>
	</g>
</g>
<g class="st1">
	<path class="st2" d="M51.9,26.7V15h-4.2v-2.7h11.5V15H55v11.7H51.9z"/>
	<path class="st2" d="M69.3,26.7l-2.8-5.1h-2.2v5.1h-3.1V12.3h6.7c3,0,4.8,2,4.8,4.6c0,2.5-1.6,3.9-3.2,4.3l3.2,5.5H69.3z M69.6,17
		c0-1.2-0.9-1.9-2.2-1.9h-3.2v3.9h3.2C68.7,18.9,69.6,18.2,69.6,17z"/>
	<path class="st2" d="M85,26.7l-0.9-2.4h-6.2L77,26.7h-3.5l5.6-14.4h3.8l5.6,14.4H85z M81,15.4l-2.2,6.2h4.5L81,15.4z"/>
	<path class="st2" d="M88.7,24.7l1.7-2.3c1,1.1,2.6,1.9,4.6,1.9c1.7,0,2.5-0.8,2.5-1.6c0-2.5-8.3-0.8-8.3-6.2c0-2.4,2.1-4.4,5.5-4.4
		c2.3,0,4.2,0.7,5.6,2l-1.7,2.2c-1.2-1.1-2.7-1.6-4.2-1.6c-1.3,0-2.1,0.6-2.1,1.4c0,2.3,8.3,0.8,8.3,6.1c0,2.6-1.9,4.6-5.8,4.6
		C92,27,90,26.1,88.7,24.7z"/>
	<path class="st2" d="M101.9,19.5c0-4.4,3.3-7.5,7.7-7.5c3.2,0,5,1.7,6,3.5l-2.6,1.3c-0.6-1.2-1.9-2.1-3.4-2.1c-2.6,0-4.5,2-4.5,4.7
		c0,2.7,1.9,4.7,4.5,4.7c1.5,0,2.8-0.9,3.4-2.1l2.6,1.3c-1,1.8-2.9,3.5-6,3.5C105.3,27,101.9,24,101.9,19.5z"/>
	<path class="st2" d="M117.5,26.7V12.3h10.2V15h-7.1v3h7v2.7h-7V24h7.1v2.7H117.5z"/>
	<path class="st2" d="M140,26.7l-6.9-9.4v9.4h-3.1V12.3h3.2l6.7,9v-9h3.1v14.4H140z"/>
	<path class="st2" d="M145.8,26.7V12.3h5.7c4.5,0,7.6,2.9,7.6,7.2c0,4.3-3.1,7.2-7.6,7.2H145.8z M156,19.5c0-2.5-1.6-4.5-4.5-4.5
		h-2.6v9h2.6C154.3,24,156,22,156,19.5z"/>
	<path class="st2" d="M161.3,26.7V12.3h10.2V15h-7.1v3h7v2.7h-7V24h7.1v2.7H161.3z"/>
	<path class="st2" d="M183.8,26.7l-6.9-9.4v9.4h-3.1V12.3h3.2l6.7,9v-9h3.1v14.4H183.8z"/>
	<path class="st2" d="M189,19.5c0-4.4,3.3-7.5,7.7-7.5c3.2,0,5,1.7,6,3.5l-2.6,1.3c-0.6-1.2-1.9-2.1-3.4-2.1c-2.6,0-4.5,2-4.5,4.7
		c0,2.7,1.9,4.7,4.5,4.7c1.5,0,2.8-0.9,3.4-2.1l2.6,1.3c-1,1.8-2.9,3.5-6,3.5C192.3,27,189,24,189,19.5z"/>
	<path class="st2" d="M204.5,26.7V12.3h3.1v14.4H204.5z"/>
	<path class="st2" d="M220.3,26.7l-0.9-2.4h-6.2l-0.9,2.4h-3.5l5.6-14.4h3.8l5.6,14.4H220.3z M216.4,15.4l-2.2,6.2h4.5L216.4,15.4z"
		/>
	<path class="st2" d="M224.1,24.7l1.7-2.3c1,1.1,2.6,1.9,4.6,1.9c1.7,0,2.5-0.8,2.5-1.6c0-2.5-8.3-0.8-8.3-6.2
		c0-2.4,2.1-4.4,5.5-4.4c2.3,0,4.2,0.7,5.6,2l-1.7,2.2c-1.2-1.1-2.7-1.6-4.2-1.6c-1.3,0-2.1,0.6-2.1,1.4c0,2.3,8.3,0.8,8.3,6.1
		c0,2.6-1.9,4.6-5.8,4.6C227.4,27,225.4,26.1,224.1,24.7z"/>
</g>
<g class="st1">
	<path class="st3" d="M237.8,26.7v-1c4.9-4,8.2-6.8,8.2-9.5c0-2.1-1.7-2.9-3.3-2.9c-1.8,0-3.2,0.8-4,1.9l-0.8-0.8
		c1-1.4,2.8-2.2,4.8-2.2c2.1,0,4.5,1.2,4.5,4.1c0,3.2-3.3,6.1-7.5,9.4h7.6v1.1H237.8z"/>
	<path class="st3" d="M250.4,19.5c0-3.4,1.4-7.4,5.3-7.4c3.8,0,5.3,4,5.3,7.4c0,3.4-1.5,7.5-5.3,7.5C251.8,27,250.4,22.9,250.4,19.5
		z M259.7,19.5c0-3-1-6.3-4-6.3c-3,0-4,3.3-4,6.3c0,3,1,6.3,4,6.3C258.7,25.9,259.7,22.5,259.7,19.5z"/>
	<path class="st3" d="M265.9,26.7V14l-2.3,2.5l-0.8-0.8l3.2-3.3h1.1v14.4H265.9z"/>
	<path class="st3" d="M271.6,26.7l6-13.3h-8v-1.1h9.4v0.9l-6.2,13.5H271.6z"/>
</g>
</svg>
