<svg xmlns="http://www.w3.org/2000/svg" viewBox="-16767 34.6 18.4 18.4">
  <defs>
    <style>
      .cls-1 {
        fill: #fff;
      }
    </style>
  </defs>
  <g id="Group_80" data-name="Group 80" transform="translate(-16621 81.6)">
    <path id="Path_39" data-name="Path 39" class="cls-1" d="M18.4,9.2a9.162,9.162,0,0,1-9.2,9.2A9.162,9.162,0,0,1,0,9.2,9.162,9.162,0,0,1,9.2,0a9.162,9.162,0,0,1,9.2,9.2Zm-1.533,0a6.96,6.96,0,0,0-2.3-5.367A8.059,8.059,0,0,0,9.2,1.533a6.96,6.96,0,0,0-5.367,2.3A8.059,8.059,0,0,0,1.533,9.2a6.96,6.96,0,0,0,2.3,5.367,8.059,8.059,0,0,0,5.367,2.3,6.96,6.96,0,0,0,5.367-2.3A8.059,8.059,0,0,0,16.867,9.2Zm-5.75-4.792a1.74,1.74,0,0,1-.575,1.342A1.617,1.617,0,0,1,9.2,6.133,1.617,1.617,0,0,1,7.858,5.75a1.74,1.74,0,0,1-.575-1.342,1.74,1.74,0,0,1,.575-1.342A1.74,1.74,0,0,1,9.2,2.492a1.74,1.74,0,0,1,1.342.575A2.07,2.07,0,0,1,11.117,4.408ZM10.733,16.1H7.667V7.283h3.067Z" transform="translate(-146 -47)"/>
  </g>
</svg>
