<svg xmlns="http://www.w3.org/2000/svg" viewBox="4485 817.041 41.5 68.559">
  <defs>
    <style>
      .cls-1 {
        fill: #42c7f4;
      }

      .cls-2 {
        fill: #fff;
      }

      .cls-3 {
        fill: #071d25;
      }
    </style>
  </defs>
  <g id="ico_map_baños" transform="translate(4455)">
    <path id="Path_56" data-name="Path 56" class="cls-1" d="M41.5,20.784a20.75,20.75,0,1,0-41.5,0C0,32.255,20.784,68.559,20.784,68.559S41.5,32.188,41.5,20.784Z" transform="translate(30 817.041)"/>
    <circle id="Ellipse_14" data-name="Ellipse 14" class="cls-2" cx="13.293" cy="13.293" r="13.293" transform="translate(37.49 822.979)"/>
    <g id="Group_34" data-name="Group 34" transform="translate(38.975 851.185)">
      <path id="Path_57" data-name="Path 57" class="cls-2" d="M36.783,50.6a12.475,12.475,0,0,1-4.926,4.791,14.039,14.039,0,0,1-6.815,1.754,14.233,14.233,0,0,1-6.815-1.754A12.921,12.921,0,0,1,13.3,50.6a20.16,20.16,0,0,0,5.533,3.509,16.158,16.158,0,0,0,6.208,1.215,16.665,16.665,0,0,0,6.208-1.215A20.16,20.16,0,0,0,36.783,50.6Z" transform="translate(-13.3 -50.6)"/>
    </g>
    <path id="Path_58" data-name="Path 58" class="cls-3" d="M15.159,42.993H12.594V36.583H10.3c.27-.877.472-1.687.675-2.5.472-1.754,1.012-3.509,1.485-5.263a3.387,3.387,0,0,0,.135-.81V21.4h8.367v.472c0,1.552.067,3.1,0,4.656a11.421,11.421,0,0,0,.607,3.981c.54,1.889,1.08,3.779,1.62,5.736a.51.51,0,0,0,.067.27H21.029v6.411H18.465V36.515H15.293C15.159,38.675,15.159,40.834,15.159,42.993Z" transform="translate(26.65 810.081)"/>
    <path id="Path_59" data-name="Path 59" class="cls-3" d="M47.3,42.993H44.8V34.356H41.564v8.1c0,.54,0,.54-.607.54H39V21.4h8.3Z" transform="translate(17.317 810.081)"/>
    <path id="Path_60" data-name="Path 60" class="cls-3" d="M43.7,16.2a2.9,2.9,0,1,1,2.9-2.9A2.88,2.88,0,0,1,43.7,16.2Z" transform="translate(16.732 813.659)"/>
    <path id="Path_61" data-name="Path 61" class="cls-3" d="M18.4,16.2a2.9,2.9,0,1,1,2.9-2.9A2.88,2.88,0,0,1,18.4,16.2Z" transform="translate(24.959 813.659)"/>
  </g>
</svg>
