<svg xmlns="http://www.w3.org/2000/svg" viewBox="5539.8 502 40 40">
  <defs>
    <style>
      .cls-1 {
        fill: #5bb547;
      }

      .cls-2 {
        fill: #fff;
      }
    </style>
  </defs>
  <g id="ico_taller" transform="translate(5313)">
    <ellipse id="Ellipse_15" data-name="Ellipse 15" class="cls-1" cx="20" cy="20" rx="20" ry="20" transform="translate(226.8 502)"/>
    <g id="Group_40" data-name="Group 40" transform="translate(232.337 507.537)">
      <path id="XMLID_32_" class="cls-2" d="M114.968,13c1.368,2.345.847,4.365-.391,6.319A8.383,8.383,0,0,1,109.3,22.9a14.706,14.706,0,0,1,5.668-9.9" transform="translate(-109.3 -10.068)"/>
      <path id="XMLID_31_" class="cls-2" d="M109.43,25.8a6.418,6.418,0,0,1-.13-1.107c2.866-.912,6.84-3.192,7.883-7.492a8.367,8.367,0,0,0-1.107-5.993,16.591,16.591,0,0,1,2.15-1.107c1.433,1.5,2.085,6.645-.2,9.772a19.263,19.263,0,0,1-8.469,6.45,1.227,1.227,0,0,1-.13-.521" transform="translate(-109.3 -9.058)"/>
      <path id="XMLID_30_" class="cls-2" d="M111.733,30.585a14.7,14.7,0,0,1-1.433-3.062c2.606-1.824,5.212-3.127,8.143-6.059A12.1,12.1,0,0,0,121.636,8.63h.13c.326-.065.586-.065.912-.13,2.606,4.821.326,10.554-3.844,14.593-3.713,3.583-5.277,5.016-7.1,7.492" transform="translate(-109.649 -8.5)"/>
      <path id="XMLID_29_" class="cls-2" d="M116.2,33.516c1.433-4.43,5.8-8.664,7.166-10.293,4.951-5.8,4.756-11.531,3-14.723a13.692,13.692,0,0,1,2.8.326c1.889,3.648,1.824,7.362-2.476,12.638-4.039,4.951-7.3,7.3-9.642,12.769-.326-.261-.586-.521-.847-.717" transform="translate(-111.705 -8.5)"/>
      <path id="XMLID_28_" class="cls-2" d="M118.9,35.477c3-7.166,10.358-11.726,13.094-15.765a10.382,10.382,0,0,0,.912-9.511,7.777,7.777,0,0,1,1.042.521c2.866,5.8-.586,10.358-4.821,14.528-2.345,2.41-6.384,7.362-7.492,11.661a12.227,12.227,0,0,1-2.736-1.433" transform="translate(-112.646 -9.093)"/>
      <path id="XMLID_27_" class="cls-2" d="M129.7,38.819a10.692,10.692,0,0,1-1.5-.13c.651-4.235,4.235-9.967,7.557-14.007,4.039-4.886,4.1-8.73,2.8-12.182a15.486,15.486,0,0,1,2.866,2.606c.977,4.235-2.085,8.86-5.147,12.117-1.824,1.954-5.668,6.58-6.58,11.6" transform="translate(-115.887 -9.894)"/>
      <path id="XMLID_26_" class="cls-2" d="M136.769,41.771a11.747,11.747,0,0,1-2.606.651l-1.564.2c.782-6.189,7.1-10.684,9.121-12.9,1.954-2.215,3.322-3.844,3.844-6.319a17.969,17.969,0,0,1,.521,1.759c-1.107,3.648-4.43,6.384-6.059,8.469a14.426,14.426,0,0,0-3.257,8.143" transform="translate(-117.421 -13.693)"/>
      <path id="XMLID_25_" class="cls-2" d="M143.986,42.343a10.338,10.338,0,0,1,2.932-7.492,18.579,18.579,0,0,0,3.388-4.951,14.478,14.478,0,0,1-6.319,12.443" transform="translate(-121.38 -15.959)"/>
    </g>
  </g>
</svg>
