<?xml version="1.0" encoding="utf-8"?>
<!-- Generator: Adobe Illustrator 16.0.0, SVG Export Plug-In . SVG Version: 6.00 Build 0)  -->
<!DOCTYPE svg PUBLIC "-//W3C//DTD SVG 1.1//EN" "http://www.w3.org/Graphics/SVG/1.1/DTD/svg11.dtd">
<svg version="1.1" id="Layer_1" xmlns="http://www.w3.org/2000/svg" xmlns:xlink="http://www.w3.org/1999/xlink" x="0px" y="0px"
	 width="678px" height="123px" viewBox="-9.5 245.5 678 123" enable-background="new -9.5 245.5 678 123" xml:space="preserve">
<g id="Group_47" transform="translate(30 16.947)">
	<g id="Group_46" transform="translate(0 0)">
		<g id="Group_45">
			<g id="XMLID_16_">
				<path fill="#FFFFFF" d="M-8.225,244.657c5.304,9.212,3.35,17.029-1.396,24.288C-15.204,277.32-22.462,280.39-30,282.624
					C-28.046,267.549-20.229,253.869-8.225,244.657"/>
			</g>
			<g id="XMLID_15_">
				<path fill="#FFFFFF" d="M-29.442,298.257c-0.279-1.396-0.558-2.792-0.558-4.188c11.167-3.629,26.521-12.562,30.429-28.753
					c1.396-8.096,0-16.192-4.188-23.171c2.513-1.675,5.304-3.071,8.096-4.188c5.583,5.863,7.816,25.404-0.559,37.688
					c-8.375,11.167-19.542,19.82-32.383,24.847C-29.163,299.653-29.442,298.816-29.442,298.257"/>
			</g>
			<g id="XMLID_14_">
				<path fill="#FFFFFF" d="M-21.904,318.358c-2.233-3.908-3.908-7.816-5.583-11.726c10.05-6.979,20.1-12.283,31.267-23.171
					c13.679-12.562,18.425-32.104,12.283-49.413h0.559c1.117-0.279,2.233-0.279,3.35-0.279c10.05,18.425,1.117,40.479-14.796,56.113
					C-8.783,303.562-14.925,309.145-21.904,318.358"/>
			</g>
			<g id="XMLID_13_">
				<path fill="#FFFFFF" d="M-12.691,329.803c5.583-17.029,22.054-33.5,27.638-39.921c19.262-22.054,18.146-44.388,11.725-56.671
					c3.629,0,7.259,0.558,10.608,1.116c7.259,14.238,6.979,28.476-9.492,48.576C12.155,302.165-0.408,311.099-9.62,332.036
					C-10.737,331.478-11.854,330.641-12.691,329.803"/>
			</g>
			<g id="XMLID_12_">
				<path fill="#FFFFFF" d="M-5.992,335.108c11.446-27.638,39.921-44.945,50.53-60.58c7.258-10.888,8.375-24.567,3.629-36.571
					c1.117,0.559,2.792,1.396,3.908,2.233c10.888,22.054-2.512,39.642-18.425,56.113c-9.212,9.213-24.567,28.196-28.754,44.946
					C0.988,339.574-2.642,337.619-5.992,335.108"/>
			</g>
			<g id="XMLID_11_">
				<path fill="#FFFFFF" d="M23.321,344.878c-1.955,0-3.909-0.279-5.863-0.56c2.792-16.471,16.192-38.523,29.034-54.157
					c15.633-18.706,15.913-33.5,11.167-47.18c4.188,2.792,7.817,6.142,10.888,10.05c3.629,16.471-8.375,34.059-19.821,46.9
					C41.746,307.749,26.95,325.615,23.321,344.878"/>
			</g>
			<g id="XMLID_10_">
				<path fill="#FFFFFF" d="M44.538,341.807c-3.071,1.396-6.7,2.233-10.05,2.513c-1.954,0.279-3.908,0.56-6.142,0.56
					c3.071-24.009,27.358-41.038,35.175-49.692c7.538-8.375,12.842-14.516,14.517-24.287c1.117,1.954,1.675,4.188,1.954,6.7
					c-4.188,13.958-17.309,24.566-23.45,32.384C49.842,319.195,45.375,330.362,44.538,341.807"/>
			</g>
			<g id="XMLID_9_">
				<path fill="#FFFFFF" d="M57.101,335.108c-0.279-10.607,3.908-21.217,11.167-28.755c5.583-5.861,9.771-12.283,13.4-19.262
					C82.226,306.353,73.013,324.499,57.101,335.108"/>
			</g>
		</g>
	</g>
</g>
<g enable-background="new    ">
	<path fill="#42C7F4" d="M144.888,324.564v-32.664h-11.725v-7.538h32.104v7.538h-11.725v32.664H144.888z"/>
	<path fill="#42C7F4" d="M193.463,324.564l-7.816-14.237h-6.142v14.237h-8.654v-40.201h18.704c8.375,0,13.4,5.583,13.4,12.842
		c0,6.979-4.466,10.888-8.933,12.005l8.933,15.354L193.463,324.564L193.463,324.564z M194.301,297.485
		c0-3.35-2.512-5.304-6.142-5.304h-8.933v10.888h8.933C191.789,302.79,194.301,300.835,194.301,297.485z"/>
	<path fill="#42C7F4" d="M237.293,324.564l-2.513-6.7h-17.308l-2.513,6.7h-9.771l15.633-40.201h10.608l15.634,40.201H237.293z
		 M226.126,293.019l-6.142,17.309h12.562L226.126,293.019z"/>
	<path fill="#42C7F4" d="M247.622,318.981l4.746-6.422c2.792,3.07,7.258,5.305,12.841,5.305c4.746,0,6.979-2.233,6.979-4.466
		c0-6.979-23.171-2.233-23.171-17.31c0-6.7,5.862-12.283,15.354-12.283c6.421,0,11.725,1.954,15.633,5.583l-4.746,6.142
		c-3.35-3.071-7.538-4.467-11.725-4.467c-3.629,0-5.862,1.675-5.862,3.908c0,6.421,23.171,2.233,23.171,17.029
		c0,7.259-5.304,12.842-16.192,12.842C256.834,325.402,251.251,322.89,247.622,318.981z"/>
	<path fill="#42C7F4" d="M284.472,304.464c0-12.283,9.213-20.938,21.496-20.938c8.934,0,13.958,4.746,16.75,9.771l-7.258,3.629
		c-1.675-3.35-5.304-5.863-9.492-5.863c-7.258,0-12.562,5.583-12.562,13.121c0,7.537,5.304,13.121,12.562,13.121
		c4.188,0,7.817-2.513,9.492-5.862l7.258,3.63c-2.792,5.023-8.096,9.771-16.75,9.771
		C293.964,325.402,284.472,317.027,284.472,304.464z"/>
	<path fill="#42C7F4" d="M328.022,324.564v-40.201h28.475v7.538h-19.821v8.375h19.542v7.539h-19.542v9.213h19.821v7.537
		L328.022,324.564L328.022,324.564z"/>
	<path fill="#42C7F4" d="M390.835,324.564l-19.263-26.243v26.243h-8.654v-40.201h8.934l18.704,25.125v-25.125h8.654v40.201H390.835z
		"/>
	<path fill="#42C7F4" d="M407.027,324.564v-40.201h15.912c12.562,0,21.217,8.096,21.217,20.1s-8.654,20.101-21.217,20.101H407.027z
		 M435.502,304.464c0-6.979-4.467-12.562-12.562-12.562h-7.259v25.125h7.259C430.757,317.027,435.502,311.443,435.502,304.464z"/>
	<path fill="#42C7F4" d="M450.298,324.564v-40.201h28.477v7.538h-19.821v8.375h19.542v7.539h-19.542v9.213h19.821v7.537
		L450.298,324.564L450.298,324.564z"/>
	<path fill="#42C7F4" d="M513.111,324.564l-19.264-26.243v26.243h-8.653v-40.201h8.934l18.704,25.125v-25.125h8.654v40.201H513.111z
		"/>
	<path fill="#42C7F4" d="M527.628,304.464c0-12.283,9.212-20.938,21.496-20.938c8.933,0,13.958,4.746,16.75,9.771l-7.259,3.629
		c-1.675-3.35-5.305-5.863-9.491-5.863c-7.259,0-12.562,5.583-12.562,13.121c0,7.537,5.305,13.121,12.562,13.121
		c4.188,0,7.815-2.513,9.491-5.862l7.259,3.63c-2.792,5.023-8.096,9.771-16.75,9.771
		C536.84,325.402,527.628,317.027,527.628,304.464z"/>
	<path fill="#42C7F4" d="M570.898,324.564v-40.201h8.653v40.201H570.898z"/>
	<path fill="#42C7F4" d="M615.008,324.564l-2.513-6.7h-17.31l-2.513,6.7h-9.771l15.633-40.201h10.607l15.635,40.201H615.008z
		 M604.12,293.019l-6.143,17.309h12.562L604.12,293.019z"/>
	<path fill="#42C7F4" d="M625.616,318.981l4.745-6.422c2.792,3.07,7.259,5.305,12.842,5.305c4.746,0,6.979-2.233,6.979-4.466
		c0-6.979-23.171-2.233-23.171-17.31c0-6.7,5.862-12.283,15.354-12.283c6.421,0,11.725,1.954,15.633,5.583l-4.745,6.142
		c-3.351-3.071-7.538-4.467-11.726-4.467c-3.629,0-5.862,1.675-5.862,3.908c0,6.421,23.171,2.233,23.171,17.029
		c0,7.259-5.305,12.842-16.191,12.842C634.828,325.402,629.245,322.89,625.616,318.981z"/>
</g>
</svg>
