<svg xmlns="http://www.w3.org/2000/svg" viewBox="-16595 35.725 23.195 16.83">
  <defs>
    <style>
      .cls-1 {
        fill: #fff;
      }

      .cls-2 {
        fill: none;
        stroke: #fff;
      }
    </style>
  </defs>
  <g id="Group_78" data-name="Group 78" transform="translate(-16594.9 35.794)">
    <path id="Path_37" data-name="Path 37" class="cls-1" d="M14.43,33.625c0,1.166-1.878,1.976-4.553,1.976v-.859c2.43,0,3.694-.724,3.694-1.117,0-.282-1.092-1.362-6.431-1.362S-.1,30.581-.1,29a2.83,2.83,0,0,1,1.89-2.393l-.319-1.62L13.5,21.5a4.646,4.646,0,0,0,1.154,5.743L2.219,28.667l-.245-1.19A1.881,1.881,0,0,0,.771,29c0,.577.466,1.129,1.325,1.546a11.946,11.946,0,0,0,5.056.859C11.779,31.4,14.43,32.213,14.43,33.625Z" transform="translate(0 -18.839)"/>
    <path id="Path_38" data-name="Path 38" class="cls-2" d="M120.647,3.433a4.241,4.241,0,1,1-5-3.321A4.256,4.256,0,0,1,120.647,3.433Z" transform="translate(-98.143 0.414)"/>
  </g>
</svg>
