<svg xmlns="http://www.w3.org/2000/svg" viewBox="4875 922.041 41.5 68.559">
  <defs>
    <style>
      .cls-1 {
        fill: #cba62c;
      }

      .cls-2 {
        fill: #fff;
      }
    </style>
  </defs>
  <g id="ico_map_visitas" transform="translate(4455)">
    <path id="Path_45" data-name="Path 45" class="cls-1" d="M41.5,20.784a20.75,20.75,0,1,0-41.5,0C0,32.255,20.784,68.559,20.784,68.559S41.5,32.188,41.5,20.784Z" transform="translate(420 922.041)"/>
    <path id="XMLID_8_" class="cls-2" d="M14.471,10.9c1.417,2.429.877,4.521-.4,6.546A8.683,8.683,0,0,1,8.6,21.157,14.838,14.838,0,0,1,14.471,10.9" transform="translate(417.203 918.496)"/>
    <path id="XMLID_7_" class="cls-2" d="M8.735,24.263A6.649,6.649,0,0,1,8.6,23.115c2.969-.945,7.085-3.307,8.165-7.76a8.666,8.666,0,0,0-1.147-6.208A13.24,13.24,0,0,1,17.777,8c1.485,1.552,2.159,6.883-.2,10.122A19.953,19.953,0,0,1,8.8,24.8c0-.2-.067-.337-.067-.54" transform="translate(417.203 919.439)"/>
    <path id="XMLID_6_" class="cls-2" d="M11.085,29.208A15.23,15.23,0,0,1,9.6,26.037c2.7-1.889,5.4-3.239,8.435-6.276A12.274,12.274,0,0,0,21.341,6.535h.135c.337-.067.607-.067.945-.135,2.7,4.993.337,10.932-3.981,15.115-3.846,3.711-5.466,5.128-7.355,7.693" transform="translate(416.878 919.959)"/>
    <path id="XMLID_5_" class="cls-2" d="M15.5,32.212c1.485-4.589,6.006-8.975,7.423-10.662,5.128-6.006,4.926-11.944,3.1-15.25a14.183,14.183,0,0,1,2.9.337c1.957,3.779,1.889,7.625-2.564,13.091-4.184,5.128-7.558,7.558-9.987,13.226a4.646,4.646,0,0,1-.877-.742" transform="translate(414.959 919.992)"/>
    <path id="XMLID_4_" class="cls-2" d="M18.2,34.282c3.1-7.423,10.729-12.146,13.563-16.33A10.754,10.754,0,0,0,32.708,8.1a8.056,8.056,0,0,1,1.08.54c2.969,6.006-.607,10.729-4.994,15.048-2.429,2.5-6.613,7.625-7.76,12.079A11.365,11.365,0,0,1,18.2,34.282" transform="translate(414.081 919.406)"/>
    <path id="XMLID_3_" class="cls-2" d="M29.052,37.662a11.074,11.074,0,0,1-1.552-.135c.675-4.386,4.386-10.324,7.828-14.508,4.184-5.061,4.251-9.042,2.9-12.619A16.041,16.041,0,0,1,41.2,13.1c1.012,4.386-2.159,9.177-5.331,12.551C33.978,27.675,30,32.466,29.052,37.662" transform="translate(411.057 918.659)"/>
    <path id="XMLID_2_" class="cls-2" d="M36.119,40.329a12.168,12.168,0,0,1-2.7.675l-1.62.2c.81-6.411,7.355-11.067,9.447-13.361,2.024-2.294,3.441-3.981,3.981-6.546a18.616,18.616,0,0,1,.54,1.822c-1.147,3.779-4.589,6.613-6.276,8.772a15.728,15.728,0,0,0-3.374,8.435" transform="translate(409.659 915.114)"/>
    <path id="XMLID_1_" class="cls-2" d="M43.287,40.689a10.708,10.708,0,0,1,3.037-7.76A19.244,19.244,0,0,0,49.833,27.8a15.243,15.243,0,0,1-6.546,12.889" transform="translate(405.932 913)"/>
    <g id="Group_26" data-name="Group 26" transform="translate(429.717 956.185)">
      <path id="Path_46" data-name="Path 46" class="cls-2" d="M37.883,50.6a12.475,12.475,0,0,1-4.926,4.791,14.039,14.039,0,0,1-6.815,1.754,14.233,14.233,0,0,1-6.815-1.754A12.921,12.921,0,0,1,14.4,50.6a20.16,20.16,0,0,0,5.533,3.509,16.158,16.158,0,0,0,6.208,1.215,16.665,16.665,0,0,0,6.208-1.215A21.215,21.215,0,0,0,37.883,50.6Z" transform="translate(-14.4 -50.6)"/>
    </g>
  </g>
</svg>
