<?xml version="1.0" encoding="utf-8"?>
<!-- Generator: Adobe Illustrator 16.0.0, SVG Export Plug-In . SVG Version: 6.00 Build 0)  -->
<!DOCTYPE svg PUBLIC "-//W3C//DTD SVG 1.1//EN" "http://www.w3.org/Graphics/SVG/1.1/DTD/svg11.dtd">
<svg version="1.1" id="Layer_1" xmlns="http://www.w3.org/2000/svg" xmlns:xlink="http://www.w3.org/1999/xlink" x="0px" y="0px"
	 width="400px" height="400px" viewBox="0 0 400 400" enable-background="new 0 0 400 400" xml:space="preserve">
<path fill="#42C6F3" d="M161.86,200.23c0-21.13,17.18-38.28,38.37-38.28s38.37,17.15,38.37,38.28c0,21.14-17.18,38.28-38.37,38.28
	S161.86,221.37,161.86,200.23z"/>
<path fill="#42C6F3" d="M243.64,150.12v-18.71c0-3.44,2.801-6.22,6.24-6.22h18.71c3.44,0,6.22,2.78,6.22,6.22v18.71
	c0,3.44-2.779,6.23-6.22,6.23h-18.71C246.44,156.35,243.64,153.56,243.64,150.12z"/>
<path fill="#42C6F3" d="M256.11,181.3h24.939v93.521c0,3.439-2.79,6.229-6.24,6.229H125.18c-3.44,0-6.24-2.79-6.24-6.229V181.3
	h24.94c-3.25,4.67-4.34,13.39-4.34,18.93c0,33.39,27.23,60.56,60.69,60.56c33.47,0,60.7-27.17,60.7-60.56
	C260.93,194.69,260.14,186.11,256.11,181.3z"/>
<path fill="#42C6F3" d="M200.22-0.01c-0.2,0-0.4,0.01-0.6,0.01C89.16,0.2-0.21,89.92,0,200.38
	c0.2,110.46,89.92,199.83,200.38,199.63C310.84,399.8,400.21,310.08,400,199.62c0,0,0,0,0-0.01
	C399.96,89.32,310.51-0.05,200.22-0.01z M299.76,276.1c0,13.061-10.62,23.66-23.72,23.66H123.95c-13.1,0-23.71-10.6-23.71-23.66
	V123.9c0-13.07,10.61-23.66,23.71-23.66h152.09c13.1,0,23.72,10.59,23.72,23.66V276.1z"/>
</svg>
