<svg xmlns="http://www.w3.org/2000/svg" viewBox="-15932 33 23.483 23.539">
  <defs>
    <style>
      .cls-1 {
        fill: #fff;
      }
    </style>
  </defs>
  <g id="Group_53" data-name="Group 53" transform="translate(-15931.972 33.039)">
    <g id="Group_49" data-name="Group 49" transform="translate(-0.028 -0.039)">
      <path id="Path_27" data-name="Path 27" class="cls-1" d="M11.71,23.5A11.722,11.722,0,0,1-.006,12.555h0A11.856,11.856,0,0,1,10.939-.009,11.687,11.687,0,0,1,23.425,10.936a11.91,11.91,0,0,1-2.852,8.556A11.72,11.72,0,0,1,12.48,23.5ZM1.381,12.478a10.434,10.434,0,1,0,9.712-11.1,10.437,10.437,0,0,0-9.712,11.1Z" transform="translate(0.028 0.039)"/>
    </g>
    <g id="Group_52" data-name="Group 52" transform="translate(5.004 4.539)">
      <g id="Group_50" data-name="Group 50" transform="translate(0 3.077)">
        <path id="Path_28" data-name="Path 28" class="cls-1" d="M11.356,14.908c0,1.927-2.389,2.158-2.389,3.314,0,.462.385.925,1.31.925a2.446,2.446,0,0,0,2-1l1.31,1.464a4.836,4.836,0,0,1-3.623,1.619c-2.081,0-3.469-1.079-3.469-2.621,0-2.389,2.775-2.621,2.775-4.008a1.148,1.148,0,0,0-.308-.694l1.773-.54A2.292,2.292,0,0,1,11.356,14.908Zm0-3.7a1.31,1.31,0,1,1-1.31-1.31A1.253,1.253,0,0,1,11.356,11.208Z" transform="translate(-6.5 -9.892)"/>
      </g>
      <g id="Group_51" data-name="Group 51" transform="translate(6.398)">
        <path id="Path_29" data-name="Path 29" class="cls-1" d="M17.112,12.3c0-1.927,2.389-2.158,2.389-3.314,0-.54-.385-.925-1.31-.925a2.446,2.446,0,0,0-2,1L14.8,7.519A4.715,4.715,0,0,1,18.423,5.9c2.158,0,3.469,1.079,3.469,2.621,0,2.389-2.775,2.621-2.775,4.008a1.148,1.148,0,0,0,.308.694l-1.773.462A1.748,1.748,0,0,1,17.112,12.3Zm0,3.623a1.31,1.31,0,1,1,1.31,1.31A1.254,1.254,0,0,1,17.112,15.92Z" transform="translate(-14.8 -5.9)"/>
      </g>
    </g>
  </g>
</svg>
