<svg xmlns="http://www.w3.org/2000/svg" viewBox="5439 576 40 40">
  <defs>
    <style>
      .cls-1 {
        fill: #f442b6;
      }

      .cls-2 {
        fill: #fff;
      }
    </style>
  </defs>
  <g id="ico_evento-social" transform="translate(5313)">
    <circle id="Ellipse_27" data-name="Ellipse 27" class="cls-1" cx="20" cy="20" r="20" transform="translate(126 576)"/>
    <g id="Group_64" data-name="Group 64" transform="translate(131.537 581.537)">
      <path id="XMLID_16_" class="cls-2" d="M14.168,13c1.368,2.345.847,4.365-.391,6.319A8.383,8.383,0,0,1,8.5,22.9,14.706,14.706,0,0,1,14.168,13" transform="translate(-8.5 -10.068)"/>
      <path id="XMLID_15_" class="cls-2" d="M8.63,25.8a6.418,6.418,0,0,1-.13-1.107c2.866-.847,6.84-3.192,7.883-7.492a8.367,8.367,0,0,0-1.107-5.993,16.59,16.59,0,0,1,2.15-1.107c1.433,1.5,2.085,6.645-.2,9.772a19.263,19.263,0,0,1-8.469,6.45,1.227,1.227,0,0,1-.13-.521" transform="translate(-8.5 -9.058)"/>
      <path id="XMLID_14_" class="cls-2" d="M10.933,30.585A14.7,14.7,0,0,1,9.5,27.523c2.606-1.824,5.212-3.127,8.143-6.059A12.1,12.1,0,0,0,20.836,8.63h.13c.326-.065.586-.065.912-.13,2.606,4.821.326,10.554-3.844,14.593-3.713,3.583-5.277,5.016-7.1,7.492" transform="translate(-8.849 -8.5)"/>
      <path id="XMLID_13_" class="cls-2" d="M15.4,33.516c1.433-4.43,5.8-8.664,7.166-10.293,4.951-5.8,4.756-11.531,3-14.723a13.692,13.692,0,0,1,2.8.326c1.889,3.648,1.824,7.362-2.476,12.638-4.039,4.951-7.3,7.3-9.642,12.769-.326-.261-.586-.521-.847-.717" transform="translate(-10.905 -8.5)"/>
      <path id="XMLID_12_" class="cls-2" d="M18.1,35.477c3-7.166,10.358-11.726,13.094-15.765a10.382,10.382,0,0,0,.912-9.511,7.777,7.777,0,0,1,1.042.521c2.866,5.8-.586,10.358-4.821,14.528-2.345,2.41-6.384,7.362-7.492,11.661A10.972,10.972,0,0,1,18.1,35.477" transform="translate(-11.846 -9.093)"/>
      <path id="XMLID_11_" class="cls-2" d="M28.9,38.819a10.692,10.692,0,0,1-1.5-.13c.651-4.235,4.235-9.967,7.557-14.007,4.039-4.886,4.1-8.73,2.8-12.182a15.486,15.486,0,0,1,2.866,2.606c.977,4.235-2.085,8.86-5.147,12.117-1.824,1.954-5.668,6.58-6.58,11.6" transform="translate(-15.087 -9.894)"/>
      <path id="XMLID_10_" class="cls-2" d="M35.869,41.771a11.747,11.747,0,0,1-2.606.651l-1.564.2c.782-6.189,7.1-10.684,9.121-12.9,1.954-2.215,3.322-3.844,3.844-6.319a17.971,17.971,0,0,1,.521,1.759c-1.107,3.648-4.43,6.384-6.059,8.469a15.4,15.4,0,0,0-3.257,8.143" transform="translate(-16.586 -13.693)"/>
      <path id="XMLID_9_" class="cls-2" d="M43.186,42.343a10.338,10.338,0,0,1,2.932-7.492A18.579,18.579,0,0,0,49.505,29.9a14.478,14.478,0,0,1-6.319,12.443" transform="translate(-20.58 -15.959)"/>
    </g>
  </g>
</svg>
