<svg xmlns="http://www.w3.org/2000/svg" viewBox="-15699.279 27.714 37.219 37.219">
  <defs>
    <style>
      .cls-1 {
        fill: #42c7f4;
      }
    </style>
  </defs>
  <path id="ico_twitter" class="cls-1" d="M18.574,0A18.61,18.61,0,1,0,37.219,18.574,18.582,18.582,0,0,0,18.574,0ZM30.29,13.5c-.5.5-.929.929-1.429,1.357a.393.393,0,0,0-.143.357,12.711,12.711,0,0,1-.429,3.643,13.24,13.24,0,0,1-2.929,5.5A12.175,12.175,0,0,1,17.645,28.5a9.994,9.994,0,0,1-2.5.143,12.982,12.982,0,0,1-6.429-1.929l-.071-.071a9.364,9.364,0,0,0,6.644-1.929A4.583,4.583,0,0,1,11.144,21.5a4.767,4.767,0,0,0,2-.071,4.707,4.707,0,0,1-3.643-4.5,4.833,4.833,0,0,0,1.929.5,4.982,4.982,0,0,1-1.857-2.786,4.823,4.823,0,0,1,.5-3.286,6.441,6.441,0,0,0,.643.714,11.7,11.7,0,0,0,2.5,2.072A12.167,12.167,0,0,0,18.145,16c.429.071.857.071,1.214.143a.189.189,0,0,0,.214-.214,4.615,4.615,0,0,1,.929-3.715,4.526,4.526,0,0,1,3-1.643,4.676,4.676,0,0,1,3.786,1.286c.143.143.214.143.429.143a8.545,8.545,0,0,0,2.357-.929c.071-.071.143-.071.286-.143A4.575,4.575,0,0,1,28.5,13.359a9.9,9.9,0,0,0,2.5-.643C30.79,12.93,30.575,13.216,30.29,13.5Z" transform="translate(-15699.279 27.714)"/>
</svg>
