<?xml version="1.0" encoding="utf-8"?>
<!-- Generator: Adobe Illustrator 21.1.0, SVG Export Plug-In . SVG Version: 6.00 Build 0)  -->
<svg version="1.1" id="Layer_1" xmlns="http://www.w3.org/2000/svg" xmlns:xlink="http://www.w3.org/1999/xlink" x="0px" y="0px"
	 viewBox="0 0 27.1 45.6" style="enable-background:new 0 0 27.1 45.6;" xml:space="preserve">
<style type="text/css">
	.st0{fill:#42C7F4;}
</style>
<g id="ico_menu" transform="translate(-2020)">
	<path id="Path_1" class="st0" d="M2044.2,17.1h-21.3c-1.6,0-2.9-1.2-2.9-2.7c0,0,0,0,0-0.1l0,0c0-1.6,1.3-2.9,2.9-2.9h21.3
		c1.6,0,2.9,1.3,2.9,2.9l0,0C2047.1,15.9,2045.8,17.1,2044.2,17.1C2044.2,17.1,2044.2,17.1,2044.2,17.1z"/>
	<path id="Path_2" class="st0" d="M2044.2,25.7h-21.3c-1.6,0-2.9-1.3-2.9-2.9c0,0,0,0,0,0l0,0c0-1.6,1.3-2.9,2.9-2.9h21.3
		c1.6,0,2.9,1.3,2.9,2.9l0,0C2047.1,24.4,2045.8,25.7,2044.2,25.7z"/>
	<path id="Path_3" class="st0" d="M2044.2,34.2h-21.3c-1.6,0-2.9-1.2-2.9-2.7c0,0,0,0,0-0.1l0,0c0-1.6,1.3-2.9,2.9-2.9h21.3
		c1.6,0,2.9,1.3,2.9,2.9l0,0C2047.1,33,2045.8,34.2,2044.2,34.2C2044.2,34.2,2044.2,34.2,2044.2,34.2z"/>
</g>
</svg>
