<svg xmlns="http://www.w3.org/2000/svg" viewBox="4485 922.041 41.5 68.559">
  <defs>
    <style>
      .cls-1 {
        fill: #42c7f4;
      }

      .cls-2 {
        fill: #fff;
      }
    </style>
  </defs>
  <g id="ico_map_comida" transform="translate(4455)">
    <path id="Path_51" data-name="Path 51" class="cls-1" d="M41.5,20.784a20.75,20.75,0,1,0-41.5,0C0,32.255,20.784,68.559,20.784,68.559S41.5,32.188,41.5,20.784Z" transform="translate(30 922.041)"/>
    <circle id="Ellipse_13" data-name="Ellipse 13" class="cls-2" cx="13.293" cy="13.293" r="13.293" transform="translate(37.49 927.979)"/>
    <path id="Path_52" data-name="Path 52" d="M21.221,20.963a9.865,9.865,0,0,1-1.35.337,2.917,2.917,0,0,1-2.7-1.147,12.611,12.611,0,0,1-2.294-4.791,9.353,9.353,0,0,1-.337-4.319,1.881,1.881,0,0,1,2.7-1.62,8.3,8.3,0,0,1,3.172,1.822,12.361,12.361,0,0,1,3.172,3.576,9.962,9.962,0,0,1,.81,1.957,2.374,2.374,0,0,1-.742,2.429,7.171,7.171,0,0,0-.607.742c.81,1.147,1.62,2.362,2.5,3.644,2.7,3.914,5.466,7.828,8.165,11.809.607.81.472,1.35-.4,1.889-.472.27-.877.54-1.35.81a1.048,1.048,0,0,1-1.687-.472l-8.7-15.993A6.271,6.271,0,0,0,21.221,20.963Z" transform="translate(25.311 919.027)"/>
    <path id="Path_53" data-name="Path 53" d="M33.15,23.528c-.472-.675-.877-1.282-1.35-1.957a.209.209,0,0,0,.067-.135,1.752,1.752,0,0,0,.4-2.159,3.225,3.225,0,0,1,.472-3.1c1.417-2.227,2.9-4.454,4.319-6.68a.329.329,0,0,1,.54-.135c.067.067.2.135.27.2.337.135.337.337.135.607-1.147,1.957-2.294,3.981-3.509,5.938-.135.27-.2.472.067.675a.479.479,0,0,0,.742-.135l3.644-5.668c.067-.135.337-.4.4-.337a2.786,2.786,0,0,1,.742.472c.067,0-.067.27-.135.337-1.147,2.024-2.294,3.981-3.509,5.938-.135.27-.2.472.135.675.27.2.472.135.675-.2.81-1.282,1.687-2.564,2.5-3.914.4-.607.81-1.282,1.215-1.889.2-.27.337-.337.607-.135.54.337.607.337.2.945-1.282,2.227-2.632,4.386-3.914,6.613A3.4,3.4,0,0,1,35.309,21.3a1.883,1.883,0,0,0-1.754,1.35A2.407,2.407,0,0,1,33.15,23.528Z" transform="translate(19.659 919.026)"/>
    <path id="Path_54" data-name="Path 54" d="M23.429,35.4c.472.945,1.012,1.822,1.485,2.767.067.067,0,.27-.067.4-1.417,2.564-2.834,5.2-4.251,7.76a.879.879,0,0,1-1.417.337c-.54-.337-1.012-.607-1.552-.945a1.008,1.008,0,0,1-.337-1.552c2.024-2.9,3.981-5.8,6.006-8.7C23.362,35.467,23.362,35.467,23.429,35.4Z" transform="translate(24.453 910.528)"/>
    <g id="Group_32" data-name="Group 32" transform="translate(39.717 956.185)">
      <path id="Path_55" data-name="Path 55" class="cls-2" d="M37.883,50.6a12.475,12.475,0,0,1-4.926,4.791,14.039,14.039,0,0,1-6.815,1.754,14.233,14.233,0,0,1-6.815-1.754A12.921,12.921,0,0,1,14.4,50.6a20.16,20.16,0,0,0,5.533,3.509,16.158,16.158,0,0,0,6.208,1.215,16.665,16.665,0,0,0,6.208-1.215A21.215,21.215,0,0,0,37.883,50.6Z" transform="translate(-14.4 -50.6)"/>
    </g>
  </g>
</svg>
