<svg xmlns="http://www.w3.org/2000/svg" viewBox="-16433 33.844 21.26 21.259">
  <defs>
    <style>
      .cls-1 {
        fill: #fff;
      }
    </style>
  </defs>
  <path id="Path_36" data-name="Path 36" class="cls-1" d="M10.629,0A10.629,10.629,0,1,0,21.259,10.629,10.623,10.623,0,0,0,10.629,0Zm3.558,15.727a4.727,4.727,0,0,1-2.571,1.047v1.547h-.9v-1.5c-.224-.007-.441-.022-.643-.045v1.547h-.9V16.639a4.285,4.285,0,0,1-1.9-.9v.882H5.913V12.76l1.555-.135.007.045A2.78,2.78,0,0,0,8.589,14.7a3.907,3.907,0,0,0,2.295.628,3.972,3.972,0,0,0,1.876-.411,1.655,1.655,0,0,0,.987-1.525c0-.733-.448-1.271-1.346-1.607a20.063,20.063,0,0,0-2.078-.576,11.168,11.168,0,0,1-2.272-.733A3.216,3.216,0,0,1,6.78,9.366a2.712,2.712,0,0,1-.419-1.488A2.972,2.972,0,0,1,6.877,6.2,3.191,3.191,0,0,1,8.365,5a5.956,5.956,0,0,1,.807-.254V2.923h.9v1.7c.157-.015.306-.015.463-.015a1.44,1.44,0,0,1,.179.007V2.923h.9V4.717a2.985,2.985,0,0,1,2.011,1.129V4.8h1.36V8.2l-1.577.12V8.267c-.164-1.465-1.106-2.2-2.811-2.2a3.254,3.254,0,0,0-2.018.508,1.486,1.486,0,0,0-.628,1.2,1.243,1.243,0,0,0,.441.994,6.073,6.073,0,0,0,2.317.822,14.746,14.746,0,0,1,2.6.755,3.062,3.062,0,0,1,2.026,2.908A3.1,3.1,0,0,1,14.188,15.727Z" transform="translate(-16433 33.844)"/>
</svg>
