<svg xmlns="http://www.w3.org/2000/svg" viewBox="5539.9 206 40 40">
  <defs>
    <style>
      .cls-1 {
        fill: #42c7f4;
      }

      .cls-2 {
        fill: #fff;
      }
    </style>
  </defs>
  <g id="ico_ambigu" transform="translate(5313)">
    <g id="Group_70" data-name="Group 70" transform="translate(226.9 206)">
      <ellipse id="Ellipse_30" data-name="Ellipse 30" class="cls-1" cx="20" cy="20" rx="20" ry="20"/>
    </g>
    <g id="Group_71" data-name="Group 71" transform="translate(231.069 210.169)">
      <ellipse id="Ellipse_31" data-name="Ellipse 31" class="cls-2" cx="15.831" cy="15.831" rx="15.831" ry="15.831"/>
      <path id="XMLID_8_" class="cls-1" d="M904.672,13.6c1.3,2.28.782,4.235-.391,6.059a8.207,8.207,0,0,1-5.081,3.453,14.162,14.162,0,0,1,5.472-9.511" transform="translate(-897.311 -8.909)"/>
      <path id="XMLID_7_" class="cls-1" d="M899.33,26.014a5.7,5.7,0,0,1-.13-1.042c2.8-.912,6.645-3.127,7.622-7.231a8.153,8.153,0,0,0-1.042-5.8A11.85,11.85,0,0,1,907.8,10.9c1.368,1.433,2.02,6.384-.2,9.446A18.407,18.407,0,0,1,899.4,26.6c0-.261-.065-.391-.065-.586" transform="translate(-897.311 -7.968)"/>
      <path id="XMLID_6_" class="cls-1" d="M901.568,30.638a12.034,12.034,0,0,1-1.368-2.932c2.476-1.759,5.081-3,7.883-5.8A11.628,11.628,0,0,0,911.145,9.53h.13c.261-.065.586-.065.847-.13,2.541,4.625.326,10.163-3.713,14.072-3.583,3.388-5.081,4.756-6.84,7.166" transform="translate(-897.659 -7.446)"/>
      <path id="XMLID_5_" class="cls-1" d="M905.9,33.369c1.368-4.235,5.6-8.4,6.906-9.967,4.756-5.6,4.56-11.14,2.866-14.2a11.99,11.99,0,0,1,2.671.326c1.824,3.583,1.759,7.166-2.345,12.182-3.909,4.756-7.1,7.036-9.316,12.378a4.255,4.255,0,0,1-.782-.717" transform="translate(-899.646 -7.376)"/>
      <path id="XMLID_4_" class="cls-1" d="M908.5,35.365c2.866-6.906,10.033-11.336,12.638-15.179A10.078,10.078,0,0,0,922.051,11c.326.13.651.326.977.456,2.736,5.6-.586,9.967-4.625,14.072-2.28,2.28-6.189,7.1-7.231,11.27a11.618,11.618,0,0,1-2.671-1.433" transform="translate(-900.552 -8.003)"/>
      <path id="XMLID_3_" class="cls-1" d="M918.9,38.472a11.629,11.629,0,0,1-1.5-.13c.651-4.1,4.039-9.642,7.3-13.55,3.909-4.691,3.974-8.4,2.736-11.792a12.687,12.687,0,0,1,2.736,2.541c.912,4.1-2.019,8.534-5.016,11.726-1.694,1.954-5.342,6.384-6.254,11.205" transform="translate(-903.654 -8.7)"/>
      <path id="XMLID_2_" class="cls-1" d="M925.639,41.385a15.345,15.345,0,0,1-2.476.651,12.651,12.651,0,0,1-1.564.13c.717-5.993,6.84-10.293,8.795-12.443,1.889-2.085,3.257-3.713,3.713-6.124a12.859,12.859,0,0,1,.456,1.694c-1.042,3.518-4.3,6.189-5.8,8.143a15.629,15.629,0,0,0-3.127,7.948" transform="translate(-905.118 -12.395)"/>
      <path id="XMLID_1_" class="cls-1" d="M932.686,41.952a10.149,10.149,0,0,1,2.8-7.231,17.823,17.823,0,0,0,3.257-4.821,14.038,14.038,0,0,1-6.059,12.052" transform="translate(-908.973 -14.591)"/>
      <path id="Path_71" data-name="Path 71" d="M910.786,22.659a9.524,9.524,0,0,1-1.3.326,2.816,2.816,0,0,1-2.606-1.107,12.175,12.175,0,0,1-2.215-4.625,9.03,9.03,0,0,1-.326-4.169,1.816,1.816,0,0,1,2.606-1.564A8.012,8.012,0,0,1,910,13.278a11.933,11.933,0,0,1,3.062,3.453,9.616,9.616,0,0,1,.782,1.889,2.291,2.291,0,0,1-.717,2.345,6.923,6.923,0,0,0-.586.717c.782,1.107,1.564,2.28,2.41,3.518,2.606,3.844,5.277,7.622,7.883,11.466.586.782.456,1.3-.391,1.824-.456.261-.847.521-1.3.782a1.012,1.012,0,0,1-1.629-.456l-8.4-15.44A3.493,3.493,0,0,0,910.786,22.659Z" transform="translate(-899.06 -8.131)"/>
      <path id="Path_72" data-name="Path 72" d="M922.9,25.235c-.456-.651-.847-1.238-1.3-1.889a.2.2,0,0,0,.065-.13,1.692,1.692,0,0,0,.391-2.085,3.113,3.113,0,0,1,.456-3c1.368-2.15,2.8-4.3,4.169-6.45a.317.317,0,0,1,.521-.13c.065.065.2.13.261.2.326.13.326.326.13.586-1.107,1.889-2.215,3.844-3.388,5.733-.13.261-.2.456.065.651a.463.463,0,0,0,.717-.13l3.518-5.472c.065-.13.326-.391.391-.326a2.689,2.689,0,0,1,.717.456c.065,0-.065.261-.13.326-1.108,1.954-2.215,3.844-3.388,5.733-.13.261-.2.456.13.651.261.2.456.13.651-.2.782-1.238,1.629-2.476,2.41-3.779.391-.586.782-1.238,1.173-1.824.2-.261.326-.326.586-.13.521.326.586.326.2.912-1.238,2.15-2.541,4.235-3.779,6.384a3.284,3.284,0,0,1-2.476,1.759,1.818,1.818,0,0,0-1.694,1.3C923.359,24.584,923.1,24.844,922.9,25.235Z" transform="translate(-905.118 -8.167)"/>
      <path id="Path_73" data-name="Path 73" d="M913.109,37.5c.456.912.977,1.759,1.433,2.671.065.065,0,.261-.065.391-1.368,2.476-2.736,5.016-4.1,7.492a.849.849,0,0,1-1.368.326c-.521-.326-.977-.586-1.5-.912a.973.973,0,0,1-.326-1.5c1.954-2.8,3.844-5.6,5.8-8.4C912.979,37.63,913.044,37.565,913.109,37.5Z" transform="translate(-900.014 -17.239)"/>
    </g>
  </g>
</svg>
